<?xml version="1.0" encoding="utf-8"?>
<!-- Generator: Adobe Illustrator 20.1.0, SVG Export Plug-In . SVG Version: 6.00 Build 0)  -->
<svg version="1.1" xmlns="http://www.w3.org/2000/svg" xmlns:xlink="http://www.w3.org/1999/xlink" x="0px" y="0px"
	 viewBox="0 0 1206 712.2" style="enable-background:new 0 0 1206 712.2;" xml:space="preserve">
<style type="text/css">
	.st0{opacity:0.34;fill:#CCCCCC;stroke:#000000;stroke-width:0.75;stroke-miterlimit:10;}
	.st1{fill:none;}
	.st2{fill:#FFFFFF;}
	.st3{fill:#FFFFFF;stroke:#FFFFFF;stroke-miterlimit:10;}
	.st4{stroke:#FFFFFF;stroke-miterlimit:10;}
	.st5{font-family:'SourceSansPro-Regular';}
	.st6{font-size:24px;}
	.st7{fill:none;stroke:#000000;stroke-miterlimit:10;}
	.st8{fill-rule:evenodd;clip-rule:evenodd;fill:none;}
	.st9{fill:#0C0A0A;stroke:#050505;stroke-miterlimit:10;}
	.st10{stroke:#000000;stroke-miterlimit:10;}
	.st11{fill:#C1272D;}
	.st12{font-family:'SourceSansPro-Semibold';}
	.st13{font-size:20px;}
	.st14{fill:none;stroke:#333333;stroke-miterlimit:10;}
	.st15{fill:none;stroke:#333333;stroke-miterlimit:10;stroke-dasharray:5.3665,5.3665;}
	.st16{fill:none;stroke:#333333;stroke-miterlimit:10;stroke-dasharray:5.4972,5.4972;}
	.st17{fill-rule:evenodd;clip-rule:evenodd;fill:none;stroke:#333333;stroke-miterlimit:10;stroke-dasharray:6,6;}
	.st18{fill-rule:evenodd;clip-rule:evenodd;stroke:#333333;stroke-miterlimit:10;stroke-dasharray:6,6;}
	.st19{stroke:#333333;stroke-miterlimit:10;stroke-dasharray:6,6;}
	.st20{fill:#666666;}
	.st21{font-size:12px;}
	.st22{opacity:0.2;fill:#CCCCCC;stroke:#000000;stroke-width:0.75;stroke-miterlimit:10;}
	.st23{font-size:36px;}
	.st24{font-family:'SourceSansPro-Light';}
	.st25{fill:none;stroke:#666666;stroke-linecap:round;stroke-linejoin:bevel;}
	.st26{fill:none;stroke:#666666;stroke-miterlimit:10;}
</style>
<g id="Layer_1">
	<rect x="350.9" y="0.4" class="st0" width="559.7" height="53"/>
	<rect x="26.1" y="64.9" class="st1" width="1171.7" height="621.6"/>
	<g>
		<rect x="77.6" y="87.8" class="st2" width="559.1" height="623.4"/>
		<path class="st2" d="M636.2,88.3v622.4H78.1V88.3H636.2 M637.2,87.3H77.1v624.4h560.1V87.3L637.2,87.3z"/>
	</g>
	<rect x="637.2" y="87.3" class="st3" width="560.1" height="624.4"/>
	<rect x="77.1" y="87.3" class="st1" width="280.1" height="344.1"/>
	<g>
		<rect x="637.7" y="87.8" class="st2" width="279.1" height="623.4"/>
		<path class="st2" d="M916.3,88.3v622.4H638.2V88.3H916.3 M917.3,87.3H637.2v624.4h280.1V87.3L917.3,87.3z"/>
	</g>
	<line class="st4" x1="357.2" y1="711.7" x2="357.2" y2="87.3"/>
	<text transform="matrix(1 0 0 1 160.1 81.9708)" class="st5 st6">Depression</text>
	<text transform="matrix(1 0 0 1 461.1639 81.9704)" class="st5 st6">Suicidal</text>
	<text transform="matrix(1 0 0 1 722.8657 81.9706)" class="st5 st6">Self-Harm</text>
	<text transform="matrix(1 0 0 1 981.3765 81.9706)" class="st5 st6">Eating Disorder</text>
	<line class="st7" x1="597.3" y1="124.9" x2="597.3" y2="124.9"/>
	<line class="st7" x1="597.3" y1="124.9" x2="598.3" y2="124.9"/>
	<path id="SVGID_x5F_1_x5F_" class="st8" d="M221.8,200.2l954.3,3.2"/>
	<text>	<textPath  xlink:href="#SVGID_x5F_1_x5F_" startOffset="16.6687%">
<tspan  class="st5 st6">  #blithe</tspan>	</textPath>
</text>
	<path id="SVGID_x5F_2_x5F_" class="st8" d="M203.7,273.9l992.7,3.2"/>
	<text>	<textPath  xlink:href="#SVGID_x5F_2_x5F_" startOffset="14.2456%">
<tspan  class="st5 st6">               </tspan><tspan  class="st5" style="font-size:40px;">    #triggerwarning</tspan>	</textPath>
</text>
	<path id="SVGID_x5F_3_x5F_" class="st8" d="M76,411.5l1120.2,3.2"/>
	<text>	<textPath  xlink:href="#SVGID_x5F_3_x5F_" startOffset="13.5559%">
<tspan  class="st5 st6">   #selbsthass</tspan>	</textPath>
</text>
	<path id="SVGID_x5F_4_x5F_" class="st1" d="M81.8,482.2L1202,479"/>
	<text>	<textPath  xlink:href="#SVGID_x5F_4_x5F_" startOffset="7.0374%">
<tspan  class="st5 st6">            #selfhate                                            #suicidal</tspan>	</textPath>
</text>
	<path id="SVGID_x5F_5_x5F_" class="st9" d="M76.9,452.3l1120.2-3.2"/>
	<text>	<textPath  xlink:href="#SVGID_x5F_5_x5F_" startOffset="14.6213%">
<tspan  class="st5 st6"> #depression                                                                                                                                                        #imnotok</tspan>	</textPath>
</text>
	<path id="SVGID_x5F_6_x5F_" class="st1" d="M81.9,514.3l1120.2-3.2"/>
	<text>	<textPath  xlink:href="#SVGID_x5F_6_x5F_" startOffset="9.1919%">
<tspan  class="st5 st6">                #svv                                                #suicide                     </tspan>	</textPath>
</text>
	<path id="SVGID_x5F_7_x5F_" class="st1" d="M85.7,540.9l1120.2-3.2"/>
	<text>	<textPath  xlink:href="#SVGID_x5F_7_x5F_" startOffset="6.7993%">
<tspan  class="st19 st5 st6">           </tspan><tspan  class="st5 st6" style="stroke:#FFFFFF;stroke-miterlimit:10;stroke-dasharray:6,6;"> </tspan><tspan  class="st5 st6">   #ritzen  </tspan><tspan  class="st19 st5 st6">                                         </tspan><tspan  class="st5 st6">    #suizid</tspan>	</textPath>
</text>
	<path class="st10" d="M1197.7,645"/>
	<path class="st10" d="M77.5,648.2"/>
	<path class="st10" d="M1197.8,686.5"/>
	<path class="st10" d="M77.6,689.7"/>
	<text transform="matrix(0.4321 -0.9018 0.9018 0.4321 26.0579 534.2023)" class="st11 st12 st13">WARNING</text>
	<text transform="matrix(0.4729 -0.8811 0.8811 0.4729 14.6259 259.332)" class="st12 st13">NO WARNING</text>
	<line x1="350.9" y1="118.1" x2="350.9" y2="118.1"/>
	<path id="SVGID_x5F_8_x5F_" class="st8" d="M81.8,124.9h280.1"/>
	<text>	<textPath  xlink:href="#SVGID_x5F_8_x5F_" startOffset="20.2637%">
<tspan  class="st5 st6">                #deb           </tspan>	</textPath>
</text>
	<path id="SVGID_x5F_9_x5F_" class="st1" d="M419.7,124.9h244.1"/>
	<text>	<textPath  xlink:href="#SVGID_x5F_9_x5F_" startOffset="15.625%">
<tspan  class="st5 st6">       #sue</tspan>	</textPath>
</text>
	<path id="SVGID_x5F_10_x5F_" class="st1" d="M425.7,160.2h279"/>
	<text>	<textPath  xlink:href="#SVGID_x5F_10_x5F_" startOffset="15.8691%">
<tspan  class="st5 st6">#selbstmort</tspan>	</textPath>
</text>
	<path id="SVGID_x5F_11_x5F_" class="st1" d="M295.2,124.9h105.3"/>
	<text>	<textPath  xlink:href="#SVGID_x5F_11_x5F_" startOffset="12.207%">
<tspan  class="st5 st6">  #debsue</tspan>	</textPath>
</text>
	<path id="SVGID_x5F_12_x5F_" class="st1" d="M636.4,124.9h280.9"/>
	<text>	<textPath  xlink:href="#SVGID_x5F_12_x5F_" startOffset="15.625%">
<tspan  class="st5 st6">      #secretsociety123</tspan>	</textPath>
</text>
	<path id="SVGID_x5F_13_x5F_" class="st1" d="M932.4,124.9h264"/>
	<text>	<textPath  xlink:href="#SVGID_x5F_13_x5F_" startOffset="7.5439%">
<tspan  class="st5 st6">                  #ana</tspan>	</textPath>
</text>
	<path id="SVGID_x5F_14_x5F_" class="st1" d="M552.7,233.8l152.1-1.3"/>
	<text>	<textPath  xlink:href="#SVGID_x5F_14_x5F_" startOffset="13.3849%">
<tspan  class="st5 st6">    #blades</tspan>	</textPath>
</text>
	<path id="SVGID_x5F_15_x5F_" class="st1" d="M651.6,160.2h252.1"/>
	<text>	<textPath  xlink:href="#SVGID_x5F_15_x5F_" startOffset="21.0205%">
<tspan  class="st5 st6">             #cat</tspan>	</textPath>
</text>
	<path id="SVGID_x5F_16_x5F_" class="st1" d="M641.9,200.2l254.4,1.6"/>
	<text>	<textPath  xlink:href="#SVGID_x5F_16_x5F_" startOffset="21.7755%">
<tspan  class="st5 st6">        #selfharrm</tspan>	</textPath>
</text>
	<path id="SVGID_x5F_17_x5F_" class="st1" d="M641.9,307.3h242.7"/>
	<text>	<textPath  xlink:href="#SVGID_x5F_17_x5F_" startOffset="14.5996%">
<tspan  class="st5 st6">           #selfhating</tspan>	</textPath>
</text>
	<path id="SVGID_x5F_18_x5F_" class="st1" d="M663.8,344.1h220.7"/>
	<text>	<textPath  xlink:href="#SVGID_x5F_18_x5F_" startOffset="8.8135%">
<tspan  class="st5 st6">          #verletzt </tspan>	</textPath>
</text>
	<path id="SVGID_x5F_19_x5F_" class="st1" d="M663.8,379.5l216.5-1.7"/>
	<text>	<textPath  xlink:href="#SVGID_x5F_19_x5F_" startOffset="3.0762%">
<tspan  class="st5 st6">      #depressionen</tspan>	</textPath>
</text>
	<path id="SVGID_x5F_20_x5F_" class="st1" d="M651.6,414.7h244.7"/>
	<text>	<textPath  xlink:href="#SVGID_x5F_20_x5F_" startOffset="0.9277%">
<tspan  class="st5 st6">      #secretsociety1234</tspan>	</textPath>
</text>
	<path id="SVGID_x5F_21_x5F_" class="st1" d="M651.6,479.7l228.7-1.6"/>
	<text>	<textPath  xlink:href="#SVGID_x5F_21_x5F_" startOffset="10.8643%">
<tspan  class="st5 st6">             #cutting</tspan>	</textPath>
</text>
	<path id="SVGID_x5F_22_x5F_" class="st1" d="M655.6,513.5l233-1.6"/>
	<text>	<textPath  xlink:href="#SVGID_x5F_22_x5F_" startOffset="16.626%">
<tspan  class="st5 st6">         #selfhate</tspan>	</textPath>
</text>
	<path id="SVGID_x5F_23_x5F_" class="st1" d="M932.4,160.2H1190"/>
	<text>	<textPath  xlink:href="#SVGID_x5F_23_x5F_" startOffset="26.5137%">
<tspan  class="st5 st6">        #annie</tspan>	</textPath>
</text>
	<path id="SVGID_x5F_24_x5F_" class="st1" d="M932.4,202.2l264-1.2"/>
	<text>	<textPath  xlink:href="#SVGID_x5F_24_x5F_" startOffset="10.7666%">
<tspan  class="st5 st6">           #bodycheck</tspan>	</textPath>
</text>
	<path id="SVGID_x5F_25_x5F_" class="st1" d="M826.1,230.6h169.1"/>
	<text>	<textPath  xlink:href="#SVGID_x5F_25_x5F_" startOffset="16.1133%">
<tspan  class="st5 st6">    #blithe</tspan>	</textPath>
</text>
	<path id="SVGID_x5F_26_x5F_" class="st1" d="M917.3,273.9h279.1"/>
	<text>	<textPath  xlink:href="#SVGID_x5F_26_x5F_" startOffset="29.5668%">
<tspan  class="st5 st6">    #restricting</tspan>	</textPath>
</text>
	<path id="SVGID_x5F_27_x5F_" class="st1" d="M917.3,307.3H1166"/>
	<text>	<textPath  xlink:href="#SVGID_x5F_27_x5F_" startOffset="27.8564%">
<tspan  class="st5 st6">        #anorexia</tspan>	</textPath>
</text>
	<path id="SVGID_x5F_28_x5F_" class="st1" d="M884.6,344.1H1158"/>
	<text>	<textPath  xlink:href="#SVGID_x5F_28_x5F_" startOffset="31.3721%">
<tspan  class="st5 st6">        #ednos/osfed</tspan>	</textPath>
</text>
	<path id="SVGID_x5F_29_x5F_" class="st1" d="M952.7,378.6l223.4-0.8"/>
	<text>	<textPath  xlink:href="#SVGID_x5F_29_x5F_" startOffset="22.0215%">
<tspan  class="st5 st6">         #bpd</tspan>	</textPath>
</text>
	<path id="SVGID_x5F_30_x5F_" class="st1" d="M964.4,414.7h188.3"/>
	<text>	<textPath  xlink:href="#SVGID_x5F_30_x5F_" startOffset="27.1484%">
<tspan  class="st5 st6">     #thin</tspan>	</textPath>
</text>
	<path id="SVGID_x5F_31_x5F_" class="st1" d="M981.4,479h151.1"/>
	<text>	<textPath  xlink:href="#SVGID_x5F_31_x5F_" startOffset="22.9492%">
<tspan  class="st5 st6">    #mia</tspan>	</textPath>
</text>
	<path id="SVGID_x5F_32_x5F_" class="st1" d="M981.4,508.1h171.3"/>
	<text>	<textPath  xlink:href="#SVGID_x5F_32_x5F_" startOffset="12.6221%">
<tspan  class="st5 st6">   #anamia</tspan>	</textPath>
</text>
	<path id="SVGID_x5F_33_x5F_" class="st1" d="M981.4,540.9l155.3-0.6"/>
	<text>	<textPath  xlink:href="#SVGID_x5F_33_x5F_" startOffset="16.0156%">
<tspan  class="st5 st6"> #bonespo</tspan>	</textPath>
</text>
	<path id="SVGID_x5F_34_x5F_" class="st1" d="M981.4,573.5h151.1"/>
	<text>	<textPath  xlink:href="#SVGID_x5F_34_x5F_" startOffset="14.4531%">
<tspan  class="st5 st6">    #ednos</tspan>	</textPath>
</text>
	<path id="SVGID_x5F_35_x5F_" class="st1" d="M995.1,603.2l137.2-1.1"/>
	<text>	<textPath  xlink:href="#SVGID_x5F_35_x5F_" startOffset="13.1836%">
<tspan  class="st5 st6">#nofood</tspan>	</textPath>
</text>
	<g>
		<path d="M217.1,150.1"/>
	</g>
	<g>
		<path d="M217.1,124.9"/>
	</g>
	<path id="SVGID_x5F_36_x5F_" class="st8" d="M45.7,230.6l1120.2,3.2"/>
	<text>	<textPath  xlink:href="#SVGID_x5F_36_x5F_" startOffset="16.2476%">
<tspan  class="st5 st6">   #depressionen</tspan>	</textPath>
</text>
	<path id="SVGID_x5F_37_x5F_" class="st8" d="M81.8,307.3l1120.2,3.2"/>
	<text>	<textPath  xlink:href="#SVGID_x5F_37_x5F_" startOffset="14.1724%">
<tspan  class="st5 st6">   #imnotok</tspan>	</textPath>
</text>
	<path id="SVGID_x5F_38_x5F_" class="st8" d="M81.8,160.2"/>
	<text>	<textPath  xlink:href="#SVGID_x5F_38_x5F_" startOffset="0%">
<tspan  class="st5 st6">   #bpd</tspan>	</textPath>
</text>
	<path id="SVGID_x5F_39_x5F_" class="st8" d="M81.8,344.1l1120.2,3.2"/>
	<text>	<textPath  xlink:href="#SVGID_x5F_39_x5F_" startOffset="14.0564%">
<tspan  class="st5 st6">  #selfhating</tspan>	</textPath>
</text>
	<path id="SVGID_x5F_40_x5F_" class="st8" d="M77.1,379.8l1120.2,3.2"/>
	<text>	<textPath  xlink:href="#SVGID_x5F_40_x5F_" startOffset="15.2466%">
<tspan  class="st5 st6">  #verletzt</tspan>	</textPath>
</text>
	<line class="st8" x1="221.8" y1="82" x2="221.8" y2="109"/>
	<g>
		<g>
			<line class="st14" x1="221.8" y1="124.9" x2="221.8" y2="127.9"/>
			<line class="st15" x1="221.8" y1="133.3" x2="221.8" y2="141.4"/>
			<line class="st14" x1="221.8" y1="144" x2="221.8" y2="147"/>
		</g>
	</g>
	<g>
		<g>
			<line class="st14" x1="221.8" y1="160.2" x2="221.8" y2="163.2"/>
			<line class="st16" x1="221.8" y1="168.7" x2="221.8" y2="210"/>
			<line class="st14" x1="221.8" y1="212.7" x2="221.8" y2="215.7"/>
		</g>
	</g>
	<line class="st17" x1="221.8" y1="233.8" x2="221.8" y2="295"/>
	<line class="st17" x1="221.8" y1="308.9" x2="221.8" y2="333.7"/>
	<line class="st17" x1="221.8" y1="345.7" x2="221.8" y2="363.7"/>
	<line class="st17" x1="221.8" y1="381.4" x2="221.8" y2="394"/>
	<line class="st17" x1="221.8" y1="411.9" x2="221.8" y2="439.4"/>
	<line class="st17" x1="221.8" y1="109" x2="221.8" y2="82"/>
	<line class="st17" x1="248.3" y1="82" x2="307.6" y2="112.4"/>
	<line class="st17" x1="464.9" y1="82" x2="394.3" y2="118.1"/>
	<line class="st17" x1="503.6" y1="82" x2="503.6" y2="109"/>
	<line class="st17" x1="503.6" y1="124.9" x2="503.6" y2="147"/>
	<line class="st17" x1="221.8" y1="124.9" x2="314.3" y2="188"/>
	<line class="st17" x1="503.6" y1="163" x2="503.6" y2="253"/>
	<line class="st17" x1="238" y1="136" x2="373.6" y2="253"/>
	<line class="st17" x1="382.3" y1="188" x2="464.9" y2="82"/>
	<line class="st17" x1="541.7" y1="82" x2="598.3" y2="215.7"/>
	<line class="st17" x1="774.2" y1="82" x2="774.2" y2="109"/>
	<line class="st17" x1="774.2" y1="124.9" x2="774.2" y2="147"/>
	<line class="st17" x1="774.2" y1="160.2" x2="774.2" y2="187.7"/>
	<line class="st17" x1="722.9" y1="82" x2="695.6" y2="118.1"/>
	<line class="st17" x1="686.9" y1="124.9" x2="614.3" y2="219.7"/>
	<line class="st17" x1="773.9" y1="203.4" x2="774.2" y2="295.7"/>
	<line class="st17" x1="774.2" y1="309.3" x2="774.2" y2="327.7"/>
	<line class="st17" x1="774.2" y1="344.1" x2="774.2" y2="366.4"/>
	<line class="st17" x1="773.9" y1="381.4" x2="773.9" y2="399.5"/>
	<line class="st17" x1="773.9" y1="414.7" x2="774.2" y2="463"/>
	<line class="st17" x1="984.3" y1="82" x2="926.3" y2="217.7"/>
	<line class="st17" x1="821.6" y1="82" x2="837.6" y2="109"/>
	<line class="st17" x1="848.9" y1="124.9" x2="896.3" y2="208"/>
	<line class="st17" x1="1049.6" y1="82" x2="1050.3" y2="111.7"/>
	<line class="st17" x1="1049.9" y1="124.9" x2="1049.9" y2="147"/>
	<line class="st17" x1="1049.9" y1="160.2" x2="1049.9" y2="187.7"/>
	<line class="st17" x1="1049.9" y1="208" x2="1049.9" y2="253"/>
	<line class="st17" x1="1049.9" y1="273.9" x2="1049.9" y2="290.4"/>
	<line class="st17" x1="1049.9" y1="308.9" x2="1049.9" y2="327.7"/>
	<line class="st17" x1="1049.9" y1="345.7" x2="1049.9" y2="366.4"/>
	<line class="st17" x1="1049.9" y1="383" x2="1049.9" y2="399.5"/>
	<line class="st17" x1="1049.9" y1="414.7" x2="1049.9" y2="433"/>
	<line class="st17" x1="1049.9" y1="449.1" x2="1049.9" y2="464.4"/>
	<line class="st17" x1="1049.9" y1="479" x2="1049.9" y2="495"/>
	<line class="st17" x1="1049.9" y1="508.1" x2="1049.9" y2="529"/>
	<line class="st17" x1="1049.9" y1="540.9" x2="1049.9" y2="559"/>
	<line class="st17" x1="1049.9" y1="573.5" x2="1049.9" y2="590.4"/>
	<line class="st17" x1="774.2" y1="479" x2="774.2" y2="495"/>
	<line class="st18" x1="221.8" y1="452.3" x2="221.8" y2="467.7"/>
	<line class="st18" x1="221.8" y1="480.6" x2="221.8" y2="501"/>
	<line class="st18" x1="221.8" y1="514.3" x2="221.8" y2="527.7"/>
	<line class="st18" x1="503.6" y1="277.1" x2="503.6" y2="465"/>
	<line class="st18" x1="503.6" y1="480.6" x2="503.6" y2="495"/>
	<line class="st18" x1="503.6" y1="513.1" x2="503.6" y2="524.4"/>
	<line class="st19" x1="541.7" y1="249.5" x2="709.2" y2="82"/>
	<g>
		<rect x="841" y="265.5" class="st2" width="139.9" height="67.7"/>
		<path class="st20" d="M980.4,266v66.7H841.5V266H980.4 M981.4,265H840.5v68.7h140.9V265L981.4,265z"/>
	</g>
	<text transform="matrix(1 0 0 1 97.0364 628.3174)"><tspan x="0" y="0" class="st5 st21">Ambiguous and abstract hashtags make it hard for people outside of the community, such as parents and Instagram, to monitor teens behavior. The more </tspan><tspan x="0" y="14.4" class="st5 st21">obvious hashtags prompt a content advisory notification, such as suicide or suicidal, but the more widely used hashtags (e.g. #ana, #secretsociety123) </tspan><tspan x="0" y="28.8" class="st5 st21">do not have any warning.</tspan></text>
	<rect x="89.9" y="608.4" class="st22" width="782.7" height="60.1"/>
	<text transform="matrix(1 0 0 1 365.9297 40.375)" class="st12 st23">The Hidden Hashtags of Instagram</text>
	<text transform="matrix(1 0 0 1 859.8008 282.1173)"><tspan x="0" y="0" class="st24 st21">users will commonly </tspan><tspan x="-2.4" y="14.4" class="st24 st21">add an extra number, </tspan><tspan x="-12" y="28.8" class="st24 st21">letter or character to hide </tspan><tspan x="25.8" y="43.2" class="st24 st21">a hashtag.</tspan></text>
	<g>
		<line class="st2" x1="854.9" y1="264.4" x2="827.2" y2="141.2"/>
		<g>
			<line class="st25" x1="854.9" y1="264.4" x2="828.8" y2="148.2"/>
			<g>
				<polygon class="st20" points="834,148.6 827.2,141.2 824.3,150.8 				"/>
			</g>
		</g>
	</g>
	<g>
		<line class="st2" x1="854.9" y1="264.4" x2="818.9" y2="208"/>
		<g>
			<line class="st25" x1="854.9" y1="264.4" x2="822.8" y2="214.1"/>
			<g>
				<polygon class="st20" points="827.8,212.6 818.9,208 819.4,218 				"/>
			</g>
		</g>
	</g>
	<text transform="matrix(1 0 0 1 292.3885 356.0364)"><tspan x="0" y="0" class="st24 st21">Users will use other languages, </tspan><tspan x="3.3" y="14.4" class="st24 st21">such as German, to hide more</tspan><tspan x="0.8" y="28.8" class="st24 st21">obvious hashtags (#selbsthass </tspan><tspan x="16.2" y="43.2" class="st24 st21">translates to self-hatred)</tspan></text>
	<g>
		<path class="st20" d="M445.9,342.6v67.1h-158v-67.1H445.9 M446.9,341.6h-160v69.1h160V341.6L446.9,341.6z"/>
	</g>
	<g>
		<g>
			<path class="st26" d="M273.6,345c9.6,9.3,14.6,22.3,13.4,35.4c-1.2,12.9-8.2,22-13.4,27"/>
			<g>
				<polygon class="st20" points="271.4,349.8 268,340.4 277.8,342.2 				"/>
			</g>
			<g>
				<polygon class="st20" points="271.4,402.6 268,412 277.8,410.2 				"/>
			</g>
		</g>
	</g>
	<g>
		<line class="st2" x1="286.9" y1="376.2" x2="256.9" y2="376.2"/>
		<g>
			<line class="st26" x1="286.9" y1="376.2" x2="264.1" y2="376.2"/>
			<g>
				<polygon class="st20" points="265.6,371.2 256.9,376.2 265.6,381.2 				"/>
			</g>
		</g>
	</g>
</g>
<g id="ai2html-settings">
</g>
</svg>
